<?xml version="1.0" standalone="no"?><!DOCTYPE svg PUBLIC "-//W3C//DTD SVG 1.1//EN" "http://www.w3.org/Graphics/SVG/1.1/DTD/svg11.dtd"><svg t="1628171627788" class="icon" viewBox="0 0 1024 1024" version="1.1" xmlns="http://www.w3.org/2000/svg" p-id="1755" xmlns:xlink="http://www.w3.org/1999/xlink" width="48" height="48"><defs><style type="text/css"></style></defs><path d="M968.145455 428.218182l-437.527273-377.018182c-13.963636-9.309091-32.581818-9.309091-41.890909 0L55.854545 437.527273c-9.309091 4.654545-13.963636 13.963636-13.963636 23.272727v484.072727c0 18.618182 13.963636 32.581818 32.581818 32.581818h209.454546c18.618182 0 32.581818-13.963636 32.581818-32.581818v-237.381818c0-9.309091 0-18.618182 4.654545-23.272727 4.654545-9.309091 18.618182-18.618182 32.581819 0 0 0 4.654545 4.654545 4.654545 9.309091 13.963636 18.618182 23.272727 27.927273 32.581818 37.236363 13.963636 4.654545 23.272727 13.963636 41.890909 13.963637h158.254546c18.618182 0 27.927273-4.654545 41.890909-18.618182 9.309091-9.309091 18.618182-18.618182 32.581818-37.236364l9.309091-9.309091c9.309091-9.309091 23.272727-9.309091 27.927273 9.309091 0 4.654545 4.654545 13.963636 4.654545 18.618182v237.381818c0 18.618182 13.963636 32.581818 32.581818 32.581818h200.145455c18.618182 0 32.581818-13.963636 32.581818-32.581818L977.454545 456.145455c4.654545-9.309091 0-18.618182-9.30909-27.927273z m-60.509091 484.072727h-134.981819v-204.8c0-13.963636 0-27.927273-4.654545-37.236364 0-4.654545-4.654545-9.309091-4.654545-9.30909-13.963636-27.927273-41.890909-46.545455-74.472728-46.545455-23.272727 0-46.545455 9.309091-60.509091 27.927273l-13.963636 13.963636c-13.963636 13.963636-18.618182 23.272727-23.272727 27.927273H437.527273c-4.654545-4.654545-9.309091-9.309091-23.272728-27.927273l-13.963636-13.963636c-13.963636-18.618182-37.236364-27.927273-60.509091-27.927273-32.581818 0-60.509091 18.618182-74.472727 46.545455 0 4.654545-4.654545 4.654545-4.654546 13.963636 0 4.654545-4.654545 18.618182-4.654545 37.236364v204.8H107.054545v-437.527273L512 121.018182l400.290909 349.090909-4.654545 442.181818z" p-id="1756" fill="#d4237a"></path></svg>